<?xml version="1.0" encoding="UTF-8" standalone="no"?>
<!-- Created with Inkscape (http://www.inkscape.org/) -->

<svg
   xmlns:dc="http://purl.org/dc/elements/1.1/"
   xmlns:cc="http://creativecommons.org/ns#"
   xmlns:rdf="http://www.w3.org/1999/02/22-rdf-syntax-ns#"
   xmlns:svg="http://www.w3.org/2000/svg"
   xmlns="http://www.w3.org/2000/svg"
   xmlns:sodipodi="http://sodipodi.sourceforge.net/DTD/sodipodi-0.dtd"
   xmlns:inkscape="http://www.inkscape.org/namespaces/inkscape"
   width="256"
   height="256"
   viewBox="0 0 256 256"
   id="svg2"
   version="1.1"
   inkscape:version="0.91 r13725"
   sodipodi:docname="favicon.svg">
  <defs
     id="defs4" />
  <sodipodi:namedview
     id="base"
     pagecolor="#ffffff"
     bordercolor="#666666"
     borderopacity="0"
     inkscape:pageopacity="0.0"
     inkscape:pageshadow="2"
     inkscape:zoom="2"
     inkscape:cx="145.97073"
     inkscape:cy="123.72116"
     inkscape:document-units="px"
     inkscape:current-layer="layer1"
     showgrid="false"
     units="px"
     width="256px"
     inkscape:window-width="1440"
     inkscape:window-height="874"
     inkscape:window-x="0"
     inkscape:window-y="510"
     inkscape:window-maximized="1"
     borderlayer="true"
     inkscape:showpageshadow="false"
     showborder="true" />
  <metadata
     id="metadata7">
    <rdf:RDF>
      <cc:Work
         rdf:about="">
        <dc:format>image/svg+xml</dc:format>
        <dc:type
           rdf:resource="http://purl.org/dc/dcmitype/StillImage" />
        <dc:title></dc:title>
      </cc:Work>
    </rdf:RDF>
  </metadata>
  <g
     inkscape:label="Layer 1"
     inkscape:groupmode="layer"
     id="layer1"
     transform="translate(0,-796.3622)"
     style="display:inline">
    <g
       transform="matrix(0.99051697,0.13739042,-0.13739042,0.99051697,108.32366,-14.676971)"
       id="g4196">
      <path
         inkscape:connector-curvature="0"
         id="path4198"
         d="m -21,782.36224 c 56.666667,0 113.333333,0 170,0 0,40 0,80 0,120 -56.666667,0 -113.333333,0 -170,0 0,-40 0,-80 0,-120 z"
         style="fill:#c50000;fill-opacity:1;stroke:none" />
      <path
         inkscape:connector-curvature="0"
         id="path4200"
         d="m 149,782.36224 c 56.66667,0 113.33333,0 170,0 0,40 0,80 0,120 -56.66667,0 -113.33333,0 -170,0 0,-40 0,-80 0,-120 z"
         style="fill:#009e00;fill-opacity:1;stroke:none" />
      <path
         inkscape:connector-curvature="0"
         id="path4202"
         d="m -21,902.36218 c 56.666667,0 113.333333,0 170,0 0,56.66667 0,113.33332 0,170.00002 -56.666667,0 -113.333333,0 -170,0 0,-56.6667 0,-113.33335 0,-170.00002 z"
         style="fill:#ffaa00;fill-opacity:1;stroke:none" />
      <path
         inkscape:connector-curvature="0"
         id="path4204"
         d="m 149,902.36218 c 56.66667,0 113.33333,0 170,0 0,56.66667 0,113.33332 0,170.00002 -56.66667,0 -113.33333,0 -170,0 0,-56.6667 0,-113.33335 0,-170.00002 z"
         style="fill:#1f1ab2;fill-opacity:1;stroke:none" />
    </g>
  </g>
</svg>
